<svg enable-background="new 0 0 24 24" height="512" viewBox="0 0 24 24" width="512" xmlns="http://www.w3.org/2000/svg"><path d="m20 4.75v2.25h-20v-2.25c0-1.52 1.23-2.75 2.75-2.75h14.5c1.52 0 2.75 1.23 2.75 2.75z" fill="#2196f3"/><path d="m9.5 17.5c0-4.411 3.589-8 8-8 .873 0 1.713.146 2.5.406v-2.906h-20v9.25c0 1.52 1.23 2.75 2.75 2.75h6.896c-.093-.486-.146-.987-.146-1.5z" fill="#eceff1"/><path d="m10 2h-7.25c-1.52 0-2.75 1.23-2.75 2.75v2.25h10z" fill="#1d83d4"/><path d="m10 7h-10v9.25c0 1.52 1.23 2.75 2.75 2.75h6.896c-.093-.486-.146-.987-.146-1.5 0-.979.177-1.917.5-2.785z" fill="#cdd0d2"/><path d="m15 5c-.553 0-1-.448-1-1v-3c0-.552.447-1 1-1s1 .448 1 1v3c0 .552-.447 1-1 1z" fill="#607d8b"/><path d="m5 5c-.552 0-1-.448-1-1v-3c0-.552.448-1 1-1s1 .448 1 1v3c0 .552-.448 1-1 1z" fill="#607d8b"/><path d="m15 0c-.553 0-1 .448-1 1v3c0 .552.447 1 1 1z" fill="#546d79"/><path d="m5 0c-.553 0-1 .448-1 1v3c0 .552.447 1 1 1z" fill="#546d79"/><path d="m17.5 11c-3.584 0-6.5 2.916-6.5 6.5s2.916 6.5 6.5 6.5 6.5-2.916 6.5-6.5-2.916-6.5-6.5-6.5zm2.5 7.5h-1.5v1.5c0 .552-.447 1-1 1s-1-.448-1-1v-1.5h-1.5c-.553 0-1-.448-1-1s.447-1 1-1h1.5v-1.5c0-.552.447-1 1-1s1 .448 1 1v1.5h1.5c.553 0 1 .448 1 1s-.447 1-1 1z" fill="#4caf50"/><path d="m17.5 11c-3.584 0-6.5 2.916-6.5 6.5s2.916 6.5 6.5 6.5v-3c-.553 0-1-.448-1-1v-1.5h-1.5c-.553 0-1-.448-1-1s.447-1 1-1h1.5v-1.5c0-.552.447-1 1-1z" fill="#429846"/></svg>