<svg xmlns="http://www.w3.org/2000/svg" viewBox="0 0 50 50"><g id="Layer_2" data-name="Layer 2"><g id="Layer_1-2" data-name="Layer 1"><rect width="50" height="50" rx="3.38" style="fill:#38b2e3"/><path d="M16.67,12.5V15H15.28a2.66,2.66,0,0,0-2.78,2.5V35a2.66,2.66,0,0,0,2.78,2.5H34.72A2.66,2.66,0,0,0,37.5,35V17.5A2.66,2.66,0,0,0,34.72,15H33.33V12.5H30.56V15H19.44V12.5Zm-1.39,5H34.72V20H15.28Zm0,5H34.72V35H15.28ZM23.61,25v2.5H20.83V30h2.78v2.5h2.78V30h2.78V27.5H26.39V25Z" style="fill:#fff"/></g></g></svg>