<svg xmlns="http://www.w3.org/2000/svg" viewBox="0 0 50 50">
    <g id="Layer_2" data-name="Layer 2">
        <g id="Layer_1-2" data-name="Layer 1">
            <g id="Layer_2-2" data-name="Layer 2">
                <g id="Layer_1-2-2" data-name="Layer 1-2">
                    <rect width="50" height="50" rx="3.38" style="fill:#38b2e3" />
                    <path
                        d="M19.21,21.43a5.44,5.44,0,0,0,4.3,0,5.2,5.2,0,0,0,1.75-1.18,5.51,5.51,0,0,0,1.19-6,5.59,5.59,0,0,0-2.94-2.93,5.54,5.54,0,0,0-6.06,1.18,5.63,5.63,0,0,0-1.18,1.75,5.46,5.46,0,0,0,1.18,6A5.24,5.24,0,0,0,19.21,21.43Zm2.15-8.78a3.72,3.72,0,1,1-3.73,3.71,3.73,3.73,0,0,1,3.73-3.71Z"
                        style="fill:#fff" />
                    <path
                        d="M21.36,21.89A5.53,5.53,0,0,1,19.2,11.27a5.7,5.7,0,0,1,2.16-.43,5.53,5.53,0,0,1,2.16.44,5.24,5.24,0,0,1,1.76,1.18,5.53,5.53,0,0,1,1.19,6.05A5.56,5.56,0,0,1,21.36,21.89Zm0-11a5.65,5.65,0,0,0-2.15.43,5.58,5.58,0,0,0-1.74,1.18,5.16,5.16,0,0,0-1.18,1.74,5.37,5.37,0,0,0,0,4.27,5.16,5.16,0,0,0,1.18,1.74,5.39,5.39,0,0,0,1.74,1.17,5.47,5.47,0,0,0,6-8.92,5.54,5.54,0,0,0-3.85-1.62Zm0,9.22a3.74,3.74,0,1,1,3.75-3.74,3.73,3.73,0,0,1-3.75,3.74Zm0-7.43a3.7,3.7,0,1,0,3.71,3.69,3.7,3.7,0,0,0-3.71-3.69h0Z"
                        style="fill:#fff" />
                    <path
                        d="M37,27.73a6,6,0,0,0-1.25-1.85,5.89,5.89,0,0,0-6.41-1.24,4,4,0,0,0-.74.38l-.3-.32a6.45,6.45,0,0,0-4.54-1.88H18.94A6.45,6.45,0,0,0,14.4,24.7a6.1,6.1,0,0,0-1.37,2,6.22,6.22,0,0,0-.51,2.48v3.08a2.63,2.63,0,0,0,2.62,2.61H27.57a2.72,2.72,0,0,0,.75-.11,5,5,0,0,0,1,.57,5.84,5.84,0,0,0,6.41-1.25A5.72,5.72,0,0,0,37.48,30,5.92,5.92,0,0,0,37,27.73ZM31.64,34a4,4,0,0,1-1.81-.42,3.72,3.72,0,0,1-.75-.49,4.21,4.21,0,0,1-.69-.71,4,4,0,0,1,1.21-5.89,3.94,3.94,0,0,1,2-.55,4,4,0,1,1,0,8.06Zm-16.5-.92a.82.82,0,0,1-.82-.82v-3a4.6,4.6,0,0,1,4.62-4.6h4.84a4.64,4.64,0,0,1,3.46,1.56,5.79,5.79,0,0,0-1,6.1,6.71,6.71,0,0,0,.44.84Z"
                        style="fill:#fff" />
                    <path
                        d="M31.64,35.84a5.78,5.78,0,0,1-2.29-.46,5.49,5.49,0,0,1-1-.57,2.65,2.65,0,0,1-.74.11H15.14a2.65,2.65,0,0,1-2.64-2.63V29.21a6.44,6.44,0,0,1,.5-2.49,6.13,6.13,0,0,1,1.38-2,6.25,6.25,0,0,1,2-1.37,6.36,6.36,0,0,1,2.51-.51h4.84a6.52,6.52,0,0,1,4.55,1.88c.1.1.2.2.29.31a5,5,0,0,1,.73-.37,5.94,5.94,0,0,1,4.57,0,5.59,5.59,0,0,1,1.86,1.25,5.82,5.82,0,0,1,0,8.23l0,0a5.59,5.59,0,0,1-1.86,1.25A5.7,5.7,0,0,1,31.64,35.84Zm-3.32-1.07h0a5,5,0,0,0,1,.57A5.84,5.84,0,0,0,35.7,34.1,5.65,5.65,0,0,0,37,32.26a5.81,5.81,0,0,0,0-4.52,5.51,5.51,0,0,0-1.25-1.84,5.83,5.83,0,0,0-6.38-1.24,4.26,4.26,0,0,0-.74.37h0l-.3-.32a6.34,6.34,0,0,0-2-1.36,6.27,6.27,0,0,0-2.49-.51h-4.9a6.37,6.37,0,0,0-6.37,6.35v3.08a2.61,2.61,0,0,0,2.6,2.59h12.4a2.65,2.65,0,0,0,.74-.11Zm3.32-.72a4.12,4.12,0,0,1-1.82-.42,4.69,4.69,0,0,1-.76-.49,3.92,3.92,0,0,1-.69-.72,4,4,0,0,1,.48-5.37,3.65,3.65,0,0,1,.74-.55,4.05,4.05,0,1,1,2.05,7.55Zm0-8.06a4,4,0,0,0-2,.54,4.44,4.44,0,0,0-.74.55,4.14,4.14,0,0,0-.65.8,3.92,3.92,0,0,0,.16,4.52,3.52,3.52,0,0,0,.68.71,4.07,4.07,0,0,0,2.55.9,4,4,0,1,0,0-8Zm-4.91,7.14H15.14a.86.86,0,0,1-.84-.84V29.21a4.65,4.65,0,0,1,4.64-4.62h4.84a4.64,4.64,0,0,1,3.47,1.56h0a5.47,5.47,0,0,0-1,1.56,5.81,5.81,0,0,0,0,4.52,5.6,5.6,0,0,0,.44.84Zm-7.79-8.5a4.6,4.6,0,0,0-4.6,4.58v3.08a.8.8,0,0,0,.8.8H26.66a4.92,4.92,0,0,1-.43-.82,5.86,5.86,0,0,1,0-4.54,5.47,5.47,0,0,1,1-1.56,4.59,4.59,0,0,0-3.43-1.54Z"
                        style="fill:#fff" />
                    <path
                        d="M33.61,29.11H32.53V28a.91.91,0,0,0-1-.8.89.89,0,0,0-.8.8v1.08H29.66a.89.89,0,0,0-.83,1.24.9.9,0,0,0,.47.47.89.89,0,0,0,.36.07h1.08V32a.91.91,0,0,0,1,.8.89.89,0,0,0,.8-.8V30.89h1.08a.89.89,0,0,0,0-1.78Z"
                        style="fill:#fff" />
                    <path
                        d="M31.64,32.88a.93.93,0,0,1-.92-.91V30.91H29.66a.91.91,0,0,1-.93-.89.9.9,0,0,1,.56-.86,1,1,0,0,1,.37-.08h1.06V28a.92.92,0,0,1,1-.82.93.93,0,0,1,.82.82v1h1.06a.92.92,0,0,1,.19,1.83.61.61,0,0,1-.19,0H32.55V32A.91.91,0,0,1,31.64,32.88Zm-2-3.75a.89.89,0,0,0-.36.07.87.87,0,0,0,0,1.6.84.84,0,0,0,.35.07h1.1V32a.88.88,0,0,0,1,.78.87.87,0,0,0,.78-.78V30.9h1.1a.87.87,0,0,0,0-1.74h-1.1V28a.88.88,0,0,0-1-.78.87.87,0,0,0-.78.78v1.1Z"
                        style="fill:#fff" />
                </g>
            </g>
        </g>
    </g>
</svg>