<svg id="Layer_1" data-name="Layer 1" xmlns="http://www.w3.org/2000/svg" viewBox="0 0 512 512"><defs><style>.cls-1{fill:#141f38;}</style></defs><title>calendar-add-glyph</title><path class="cls-1" d="M140.8,89.6A25.59,25.59,0,0,0,166.4,64V25.6a25.6,25.6,0,0,0-51.2,0V64A25.59,25.59,0,0,0,140.8,89.6Z"/><path class="cls-1" d="M38.4,460.8A63.77,63.77,0,0,1,2.69,449.92,83.26,83.26,0,0,0,83.2,512H428.8a83.26,83.26,0,0,0,80.51-62.08A63.77,63.77,0,0,1,473.6,460.8Z"/><path class="cls-1" d="M371.2,89.6A25.59,25.59,0,0,0,396.8,64V25.6a25.6,25.6,0,0,0-51.2,0V64A25.59,25.59,0,0,0,371.2,89.6Z"/><path class="cls-1" d="M448,38.4H422.4V64A51.2,51.2,0,0,1,320,64V38.4H192V64A51.2,51.2,0,0,1,89.6,64V38.4H64a64,64,0,0,0-64,64v51.2H512V102.4A64,64,0,0,0,448,38.4Z"/><path class="cls-1" d="M230.4,320h12.8v12.8a12.8,12.8,0,0,0,25.6,0V320h12.8a12.8,12.8,0,1,0,0-25.6H268.8V281.6a12.8,12.8,0,0,0-25.6,0v12.8H230.4a12.8,12.8,0,1,0,0,25.6Z"/><path class="cls-1" d="M0,396.8a38.43,38.43,0,0,0,38.4,38.4H473.6A38.43,38.43,0,0,0,512,396.8V179.2H0ZM256,217.6a89.6,89.6,0,1,1-89.6,89.6A89.6,89.6,0,0,1,256,217.6Z"/></svg>