<svg id="Layer_1" data-name="Layer 1" xmlns="http://www.w3.org/2000/svg" viewBox="0 0 85.56 70.1"><title>calendarcloud2</title><path d="M80.53,41.84a14.74,14.74,0,0,0,.79-1.93c2.63-7.74-1.34-17-9.69-19.25C70.73,9.33,62.76,1.55,53.76.22c-10.29-1.5-19.7,5-22.87,15.42A12.51,12.51,0,0,0,20,16.5a13.39,13.39,0,0,0-4.31,3.22A15,15,0,0,0,12,27.18a13.34,13.34,0,0,0-2.17.48,10.63,10.63,0,0,0-7.26,8.89,13.1,13.1,0,0,0,.93,6.69,10.34,10.34,0,0,0,10.94,6.28,1.07,1.07,0,0,1,.75.24,21.42,21.42,0,0,0,8.87,17c8.28,5.75,18.94,4,25.67-3.91a11.78,11.78,0,0,0,10.33,3.84,12.71,12.71,0,0,0,9.39-6.32,21.64,21.64,0,0,0,3.07.8c4,.44,7.3-1.16,9.69-4.78A10.52,10.52,0,0,0,84,50,11,11,0,0,0,80.53,41.84Z" transform="translate(0.01 -0.01)" fill="#6f35a5"/><path d="M68.69,35.24H80.4a4.87,4.87,0,0,0,1-9.63,3.32,3.32,0,0,0,0-.63,5,5,0,0,0-9.06-3,5.56,5.56,0,0,0-11-.63,5.66,5.66,0,0,0,0,2.17,3.47,3.47,0,0,0-6,2.13,4.73,4.73,0,0,0-2.71.19,4.92,4.92,0,0,0-3.21,4.37,4.86,4.86,0,0,0,4.66,5.06H65.54" transform="translate(0.01 -0.01)" fill="#fdfcef"/><path d="M80.4,35.72H68.69a.5.5,0,0,1,0-1H80.4a4.37,4.37,0,0,0,.9-8.64.5.5,0,0,1-.4-.55,5.42,5.42,0,0,0,0-.57,4.54,4.54,0,0,0-8.16-2.73.49.49,0,0,1-.54.18.5.5,0,0,1-.36-.44,5.06,5.06,0,0,0-10-.58,5.18,5.18,0,0,0,0,2,.52.52,0,0,1-.26.55.5.5,0,0,1-.6-.11,3,3,0,0,0-5.15,1.83.5.5,0,0,1-.54.46h-.06a4.2,4.2,0,0,0-2.43.17,4.43,4.43,0,0,0-2.88,3.92,4.36,4.36,0,0,0,4.2,4.52H65.54a.5.5,0,0,1,0,1H54.32A5.34,5.34,0,0,1,49,30.38a1.92,1.92,0,0,1,0-.24,5.46,5.46,0,0,1,3.53-4.82A5.15,5.15,0,0,1,55,25,4,4,0,0,1,59.71,22a4.19,4.19,0,0,1,1.07.4,6.3,6.3,0,0,1,.1-1.15,6.09,6.09,0,0,1,5.18-4.85,6,6,0,0,1,4.62,1.36,6.2,6.2,0,0,1,2,3.18,5.48,5.48,0,0,1,3.69-1.42A5.55,5.55,0,0,1,81.91,25v.25A5.37,5.37,0,0,1,80.4,35.72Z" transform="translate(0.01 -0.01)" fill="#472b29"/><path d="M65.87,24.52A3.15,3.15,0,0,0,62.4,27.3a3,3,0,0,0,0,.6A2.16,2.16,0,0,0,61,27.2a2,2,0,0,0-2.15,1.62,3.22,3.22,0,0,0-.62-.11,2.75,2.75,0,0,0-3,2.43" transform="translate(0.01 -0.01)" fill="#fdfcef"/><path d="M55.19,31.39h0a.25.25,0,0,1-.23-.26,3,3,0,0,1,3.29-2.67,2.9,2.9,0,0,1,.41.06A2.26,2.26,0,0,1,61,27a2.43,2.43,0,0,1,1.16.39v-.06a3.36,3.36,0,0,1,3.7-3h0a.25.25,0,0,1,.24.26.26.26,0,0,1-.25.24h0a2.9,2.9,0,0,0-3.2,2.54,2.53,2.53,0,0,0,0,.55.25.25,0,0,1-.19.3.25.25,0,0,1-.25-.09A1.86,1.86,0,0,0,61,27.46a1.72,1.72,0,0,0-1.9,1.39A.25.25,0,0,1,59,29a.37.37,0,0,1-.21,0,2.13,2.13,0,0,0-.56-.1,2.5,2.5,0,0,0-2.77,2.2h0a.24.24,0,0,1-.19.27Z" transform="translate(0.01 -0.01)" fill="#472b29"/><path d="M82.37,26.18a3,3,0,0,0-4.15.86,2.89,2.89,0,0,0-.42,1" transform="translate(0.01 -0.01)" fill="#fdfcef"/><path d="M77.8,28.26h0a.25.25,0,0,1-.19-.3h0a2.77,2.77,0,0,1,.22-.63A3.51,3.51,0,0,1,82.53,26a.25.25,0,0,1-.21.46,3,3,0,0,0-4,1.14,2.47,2.47,0,0,0-.18.52.26.26,0,0,1-.31.2Z" transform="translate(0.01 -0.01)" fill="#472b29"/><path d="M10.49,33.91H.49a.5.5,0,0,1,0-1h10a.52.52,0,0,1,.5.5A.5.5,0,0,1,10.49,33.91Zm2.87,0H11.92a.5.5,0,0,1,0-1h1.44a.52.52,0,0,1,.5.5A.5.5,0,0,1,13.36,33.91Zm4,0h-2.5a.5.5,0,0,1,0-1h2.53a.5.5,0,0,1,0,1Zm0,1.86H7.82a.5.5,0,0,1,0-1h9.57a.5.5,0,0,1,0,1Zm-11.3,0H5.49a.5.5,0,0,1,0-1h.57a.5.5,0,1,1,0,1Zm-2.36,0H2.28a.5.5,0,0,1,0-1H3.73a.52.52,0,0,1,.5.5.5.5,0,0,1-.5.5Zm9.09-3.71h-5a.5.5,0,0,1,0-1h5a.5.5,0,0,1,.5.5.51.51,0,0,1-.47.5Zm0-1.86H11.57a.5.5,0,1,1,0-1h1.25a.5.5,0,0,1,0,1ZM9.54,37.63H7.82a.5.5,0,0,1,0-1H9.57a.5.5,0,0,1,0,1ZM63.45,7.72h-10a.5.5,0,0,1,0-1h10a.52.52,0,0,1,.5.5A.5.5,0,0,1,63.45,7.72Zm2.87,0H64.88a.5.5,0,0,1,0-1h1.44a.52.52,0,0,1,.5.5A.5.5,0,0,1,66.32,7.72Zm4,0h-2.5a.5.5,0,0,1,0-1h2.53a.5.5,0,0,1,0,1ZM68.32,4H58.76a.5.5,0,0,1,0-1h9.58a.5.5,0,0,1,0,1ZM57.06,4h-.6a.5.5,0,1,1,0-1h.6a.5.5,0,0,1,0,1ZM54.7,4H53.22a.5.5,0,1,1,0-1h1.45a.5.5,0,0,1,0,1ZM65.81,5.89h-5a.5.5,0,0,1,0-1h5a.5.5,0,0,1,0,1h0Z" transform="translate(0.01 -0.01)" fill="#fff"/><path d="M65.78,4H64.53a.5.5,0,1,1,0-1h1.25a.5.5,0,0,1,0,1ZM59.33,5.89H57.58a.5.5,0,0,1,0-1h1.75a.5.5,0,0,1,.5.5A.52.52,0,0,1,59.33,5.89Z" transform="translate(0.01 -0.01)" fill="#fff"/><path d="M58.71,59.72H29.17a6.88,6.88,0,0,1-6.85-6.84V23.36a6.88,6.88,0,0,1,6.85-6.85H58.71a6.88,6.88,0,0,1,6.84,6.85V52.9A6.85,6.85,0,0,1,58.71,59.72Z" transform="translate(0.01 -0.01)" fill="#fac583"/><path d="M58.71,59.44H29.17a7.55,7.55,0,0,1-7.55-7.54V22.36a7.56,7.56,0,0,1,7.55-7.55H58.71a7.55,7.55,0,0,1,7.54,7.55V51.9A7.56,7.56,0,0,1,58.71,59.44ZM29.17,16.21a6.15,6.15,0,0,0-6.11,6.15V51.9A6.14,6.14,0,0,0,29.2,58H58.71a6.14,6.14,0,0,0,6.14-6.14V22.36a6.16,6.16,0,0,0-6.14-6.15Z" transform="translate(0.01 -0.01)" fill="#472b29"/><path d="M56.92,55.66h-26a5.57,5.57,0,0,1-5.55-5.55v-26a5.57,5.57,0,0,1,5.55-5.55h26a5.57,5.57,0,0,1,5.55,5.55v26A5.57,5.57,0,0,1,56.92,55.66Z" transform="translate(0.01 -0.01)" fill="#fdfcee"/><path d="M56.84,56H31.06a6,6,0,0,1-6-6V24.23a6,6,0,0,1,6-6H55.6a.35.35,0,0,1,0,.7H31.06a5.3,5.3,0,0,0-5.28,5.28V50a5.29,5.29,0,0,0,5.28,5.3h25.8A5.3,5.3,0,0,0,62.14,50V35.72a.34.34,0,0,1,.33-.35h0a.35.35,0,0,1,.35.35V50A6,6,0,0,1,56.84,56Zm5.63-22a.35.35,0,0,1-.35-.35V31a.35.35,0,1,1,.7,0v2.77a.37.37,0,0,1-.35.33Z" transform="translate(0.01 -0.01)" fill="#472b29"/><path d="M62.47,29.93a.35.35,0,0,1-.35-.35V28.21a.34.34,0,0,1,.33-.35h0a.35.35,0,0,1,.35.35v1.37A.37.37,0,0,1,62.47,29.93Z" transform="translate(0.01 -0.01)" fill="#472b29"/><path d="M53.7,43.89a3.56,3.56,0,0,1-3.64,3.36h-12a3.52,3.52,0,0,1-3.59-3.36V31.17A3.38,3.38,0,0,1,38,28h12a3.42,3.42,0,0,1,3.64,3.18Z" transform="translate(0.01 -0.01)" fill="#f2f0e7"/><path d="M50.06,47.62h-12a3.91,3.91,0,0,1-4-3.73V31.17A3.74,3.74,0,0,1,38,27.62H50.06a3.76,3.76,0,0,1,4,3.51V43.89A3.93,3.93,0,0,1,50.06,47.62Zm-12-19.25a3,3,0,0,0-3.22,2.77V43.89a3.16,3.16,0,0,0,3.22,3h12a3.17,3.17,0,0,0,3.26-3V31.17a3,3,0,0,0-3.18-2.81H38.06Z" transform="translate(0.01 -0.01)" fill="#472b29"/><path d="M35,33.25H53.37V31.1c0-1.6-1.59-2.83-3.51-2.83H38.25c-1.91,0-3.47,1.23-3.47,2.83v2.15Z" transform="translate(0.01 -0.01)" fill="#ff7081"/><path d="M48.57,33.5H34.67a.25.25,0,0,1,0-.5h13.9a.25.25,0,0,1,0,.5Zm-9.43-3.3a.5.5,0,0,1-.5-.5V25.82a.5.5,0,0,1,1,0v3.9A.5.5,0,0,1,39.14,30.2Zm9.85,0a.5.5,0,0,1-.5-.5V25.82a.5.5,0,0,1,1,0v3.9A.5.5,0,0,1,49,30.2Z" transform="translate(0.01 -0.01)" fill="#472b29"/><path d="M38.21,38.42c0-1.45,1.38-2.07,2.64-2.07s2.85.55,2.85,2.18S42.39,40.6,41,40.6c-.57,0-1.49.14-1.49.88v.59h4.25v1.2H38.19v-1.8c0-1.57,1.42-2,2.77-2,.52,0,1.46-.09,1.46-.88s-.67-1.09-1.55-1.09c-.67,0-1.37.34-1.38,1Z" transform="translate(0.01 -0.01)" fill="#cdcbbd"/><path d="M43.72,43.52H38.18a.25.25,0,0,1-.25-.25v-1.8c0-1.43,1.13-2.29,3-2.29.8,0,1.21-.21,1.21-.63,0-.76-.91-.84-1.3-.84-.55,0-1.12.27-1.13.71a.25.25,0,0,1-.25.25H38.21a.25.25,0,0,1-.18-.08.29.29,0,0,1-.07-.18c0-1.59,1.51-2.31,2.89-2.31s3.1.63,3.1,2.42c0,2.08-1.71,2.32-3,2.32-.29,0-1.24,0-1.24.64v.34h4a.25.25,0,0,1,.25.25v1.2A.26.26,0,0,1,43.72,43.52ZM38.43,43h5v-.7h-4a.25.25,0,0,1-.25-.25v-.59c0-.71.65-1.13,1.74-1.13,1.75,0,2.49-.55,2.49-1.82,0-1.79-2-1.93-2.6-1.93-1.1,0-2.21.48-2.37,1.57h.79a1.57,1.57,0,0,1,1.6-1c1.11,0,1.8.51,1.8,1.34,0,.43-.22,1.13-1.71,1.13-1,0-2.53.24-2.53,1.79Z" transform="translate(0.01 -0.01)" fill="#472b29"/><path d="M49.57,37.66H45.88v1.2h1.33c1.45,0,2.75.59,2.74,2.19a2.39,2.39,0,0,1-2.44,2.32l-.23,0c-1.51,0-2.8-.54-2.81-2.14h1.28c0,.75.86.95,1.51.95s1.41-.3,1.41-1.11-.76-1-1.46-1H44.62V36.44h5Z" transform="translate(0.01 -0.01)" fill="#cdcbbd"/><path d="M47.28,43.6c-2,0-3-.85-3.06-2.39A.25.25,0,0,1,44.3,41a.28.28,0,0,1,.17-.07h1.28a.25.25,0,0,1,.25.25c0,.65,1,.7,1.26.7s1.16-.18,1.16-.86a.6.6,0,0,0-.16-.44,1.53,1.53,0,0,0-1-.3H44.62a.25.25,0,0,1-.25-.25V36.44a.25.25,0,0,1,.25-.25h5a.25.25,0,0,1,.25.25v1.21a.25.25,0,0,1-.25.25H46.13v.71h1.08a3.31,3.31,0,0,1,2.37.8,2.17,2.17,0,0,1,.62,1.64C50.2,42.81,48.73,43.6,47.28,43.6Zm-2.54-2.14c.15,1.35,1.44,1.64,2.54,1.64a2.14,2.14,0,0,0,2.4-1.86,1.23,1.23,0,0,0,0-.19,1.71,1.71,0,0,0-.47-1.33,2.84,2.84,0,0,0-2-.65H45.88a.25.25,0,0,1-.25-.25v-1.2a.25.25,0,0,1,.25-.25h3.44v-.65H44.87v3.11h2.34a2,2,0,0,1,1.41.45,1.07,1.07,0,0,1,.3.8,1.49,1.49,0,0,1-1.59,1.36h-.07c-1,0-1.59-.36-1.73-1Z" transform="translate(0.01 -0.01)" fill="#472b29"/><path d="M51.75,33.5H50.06a.25.25,0,0,1,0-.5h1.73a.25.25,0,0,1,0,.5Z" transform="translate(0.01 -0.01)" fill="#472b29"/><path d="M53.71,33.5h-.77a.25.25,0,0,1,0-.5h.77a.25.25,0,1,1,0,.5Z" transform="translate(0.01 -0.01)" fill="#472b29"/><path d="M32.67,61.5H36.2A3.72,3.72,0,0,0,37,54.13a3.84,3.84,0,0,0-3.34-4.3,2.82,2.82,0,0,0-.58,0,4,4,0,0,0-3.14,1.53,4.36,4.36,0,0,0-8.6-.48,4.22,4.22,0,0,0,0,1.66,2.74,2.74,0,0,0-2-.85,2.69,2.69,0,0,0-2.71,2.48,3.82,3.82,0,0,0-4.49,3,3.93,3.93,0,0,0-.06.48,3.76,3.76,0,0,0,3.65,3.87h8.93m1.63,0h.36" transform="translate(0.01 -0.01)" fill="#fdfcef"/><path d="M36.2,62H32.67a.5.5,0,0,1,0-1H36.2a3.22,3.22,0,0,0,.68-6.38.5.5,0,0,1-.4-.55,2.94,2.94,0,0,0,0-.42,3.45,3.45,0,0,0-6.18-2,.51.51,0,0,1-.9-.27,3.73,3.73,0,0,0-1.34-2.6,3.88,3.88,0,0,0-3-.85A3.75,3.75,0,0,0,21.72,52a2.32,2.32,0,0,0,.06.38.5.5,0,0,1-.26.54.47.47,0,0,1-.59-.1,2.29,2.29,0,0,0-1.63-.69,2.19,2.19,0,0,0-2.21,2,.47.47,0,0,1-.2.36.51.51,0,0,1-.41.09,3.09,3.09,0,0,0-1.83.13,3.31,3.31,0,0,0-2.19,2.89A3.15,3.15,0,0,0,13.35,60a3.34,3.34,0,0,0,2.42,1h8.77a.52.52,0,0,1,.5.5.5.5,0,0,1-.5.5H15.82a4.34,4.34,0,0,1-3.14-1.24,4.19,4.19,0,0,1-1.17-3.06,4.31,4.31,0,0,1,2.84-3.79,4.13,4.13,0,0,1,1.87-.25,3.23,3.23,0,0,1,3.94-2.31,3.77,3.77,0,0,1,.59.22,4.43,4.43,0,0,1,.09-.72A4.84,4.84,0,0,1,25,47a4.89,4.89,0,0,1,3.71,1.07,4.68,4.68,0,0,1,1.54,2.29,4.46,4.46,0,0,1,7.27,3.35v0A4.22,4.22,0,0,1,36.2,62Zm-9.62,0h-.36a.5.5,0,0,1,0-1h.36a.5.5,0,0,1,0,1Z" transform="translate(0.01 -0.01)" fill="#472b29"/><path d="M34.5,56.22h-.06a.25.25,0,0,1-.19-.3h0a2.64,2.64,0,0,1,.17-.47,2.8,2.8,0,0,1,3.71-1,.25.25,0,0,1-.21.46h0a2.28,2.28,0,0,0-3,.77,1.55,1.55,0,0,0-.13.36A.24.24,0,0,1,34.5,56.22Z" transform="translate(0.01 -0.01)" fill="#472b29"/><path d="M29.36,62h-1.1a.5.5,0,0,1,0-1h1.1a.5.5,0,0,1,0,1Z" transform="translate(0.01 -0.01)" fill="#472b29"/></svg>