<svg xmlns="http://www.w3.org/2000/svg" viewBox="0 0 384 348"><g id="Layer_2" data-name="Layer 2"><g id="Layer_1-2" data-name="Layer 1"><path d="M120,228a72,72,0,1,0,72-72,72,72,0,0,0-72,72Zm72-48a48,48,0,1,1-48,48,48,48,0,0,1,48-48Zm0,0" transform="translate(0 0)" style="fill:#fff"/><rect x="288" y="132" width="48" height="24" style="fill:#fff"/><rect x="360" y="180" width="24" height="24" style="fill:#fff"/><rect x="360" y="228" width="24" height="24" style="fill:#fff"/><path d="M273.37,84l-12-48H192V60h50.63l12,48H360v48h24V84Zm0,0" transform="translate(0 0)" style="fill:#fff"/><path d="M360,324H24V168H0V348H384V276H360Zm0,0" transform="translate(0 0)" style="fill:#fff"/><path d="M48,168h72V120h48V48H120V0H48V48H0v72H48ZM24,96V72H72V24H96V72h48V96H96v48H72V96Zm0,0" transform="translate(0 0)" style="fill:#fff"/></g></g></svg>