<svg xmlns="http://www.w3.org/2000/svg" viewBox="0 0 384 384"><g id="Layer_2" data-name="Layer 2"><g id="Layer_1-2" data-name="Layer 1"><path d="M368,128.64H16a16,16,0,0,0-16,16V336a48.06,48.06,0,0,0,48,48H336a48.06,48.06,0,0,0,48-48V144.64a16,16,0,0,0-16-16Zm0,0" transform="translate(0 0)" style="fill:#edeff0"/><path d="M336,48H48A48,48,0,0,0,0,96v48.64H384V96a48,48,0,0,0-48-48Zm0,0" transform="translate(0 0)" style="fill:#478fcc"/><path d="M176,320l-1.22-.05a16,16,0,0,1-11.68-6.49l-44-60a16,16,0,1,1,25.81-18.93l33,45,78.81-78.82a16,16,0,0,1,22.63,22.63l-92,92A16,16,0,0,1,176,320Zm0,0" transform="translate(0 0)" style="fill:#478fcc"/><path d="M192,144.64H0V336a48.06,48.06,0,0,0,48,48H192V310.62l-4.69,4.69A15.93,15.93,0,0,1,176,320l-1.22-.05a16,16,0,0,1-11.68-6.49l-44-60a16,16,0,0,1,3.44-22.37,16,16,0,0,1,22.37,3.44l33,45L192,265.37Zm0,0" transform="translate(0 0)" style="fill:#ced1d2"/><path d="M192,48H48A48,48,0,0,0,0,96v48.64H192Zm0,0" transform="translate(0 0)" style="fill:#2f81c4"/><path d="M132,228a16,16,0,0,0-12.88,25.47l44,60a16.09,16.09,0,0,0,11.68,6.5l1.22,0a15.93,15.93,0,0,0,11.31-4.69l4.69-4.69V265.37L177.87,279.5l-33-45A15.94,15.94,0,0,0,132,228Zm0,0" transform="translate(0 0)" style="fill:#2f81c4"/><path d="M304,0H288a16,16,0,0,0-16,16V80a16,16,0,0,0,16,16h16a16,16,0,0,0,16-16V16A16,16,0,0,0,304,0Zm0,0" transform="translate(0 0)" style="fill:#3374ba"/><path d="M296,0h-8a16,16,0,0,0-16,16V80a16,16,0,0,0,16,16h8Zm0,0" transform="translate(0 0)" style="fill:#1f68b2"/><path d="M96,0H80A16,16,0,0,0,64,16V80A16,16,0,0,0,80,96H96a16,16,0,0,0,16-16V16A16,16,0,0,0,96,0Zm0,0" transform="translate(0 0)" style="fill:#3374ba"/><path d="M88,0H80A16,16,0,0,0,64,16V80A16,16,0,0,0,80,96h8Zm0,0" transform="translate(0 0)" style="fill:#1f68b2"/></g></g></svg>