<svg xmlns="http://www.w3.org/2000/svg" viewBox="0 0 384 334.5"><g id="Layer_2" data-name="Layer 2"><g id="Layer_1-2" data-name="Layer 1"><path d="M365.25,90A41.25,41.25,0,1,1,324,48.75,41.25,41.25,0,0,1,365.25,90Zm0,0" transform="translate(0 -0.75)" style="fill:#233b77"/><path d="M324,131.25V48.75a41.25,41.25,0,0,1,0,82.5Zm0,0" transform="translate(0 -0.75)" style="fill:#051936"/><path d="M384,207.37V288.5a22.83,22.83,0,0,1-22.84,22.75H282.05A11.25,11.25,0,0,1,270.8,300c0-10.94-6.05-66.35-6.05-92.63a50.83,50.83,0,0,1,50.93-50.62h17.39A50.83,50.83,0,0,1,384,207.37Zm0,0" transform="translate(0 -0.75)" style="fill:#233b77"/><path d="M384,207.37V288.5a22.83,22.83,0,0,1-22.84,22.75H324V156.75h9.07A50.83,50.83,0,0,1,384,207.37Zm0,0" transform="translate(0 -0.75)" style="fill:#051936"/><path d="M101.25,90A41.25,41.25,0,1,1,60,48.75,41.25,41.25,0,0,1,101.25,90Zm0,0" transform="translate(0 -0.75)" style="fill:#233b77"/><path d="M60,131.25V48.75a41.25,41.25,0,0,1,0,82.5Zm0,0" transform="translate(0 -0.75)" style="fill:#051936"/><path d="M119.25,207.37c0,27.12-6,81.2-6,92.63A11.25,11.25,0,0,1,102,311.25H22.06A22,22,0,0,1,0,289.27v-81.9a50.83,50.83,0,0,1,50.93-50.62H68.32a50.83,50.83,0,0,1,50.93,50.62Zm0,0" transform="translate(0 -0.75)" style="fill:#233b77"/><path d="M119.25,207.37c0,27.12-6,81.2-6,92.63A11.25,11.25,0,0,1,102,311.25H60V156.75h8.32a50.83,50.83,0,0,1,50.93,50.62Zm0,0" transform="translate(0 -0.75)" style="fill:#051936"/><path d="M257.25,66A65.25,65.25,0,1,1,192,.75,65.26,65.26,0,0,1,257.25,66Zm0,0" transform="translate(0 -0.75)" style="fill:#58b352"/><path d="M192,131.25V.75a65.25,65.25,0,0,1,0,130.5Zm0,0" transform="translate(0 -0.75)" style="fill:#00a963"/><path d="M293.25,247.52V309A26.29,26.29,0,0,1,267,335.25H117A26.29,26.29,0,0,1,90.75,309V247.52a90.87,90.87,0,0,1,90.77-90.77h21a90.87,90.87,0,0,1,90.77,90.77Zm0,0" transform="translate(0 -0.75)" style="fill:#58b352"/><path d="M293.25,247.52V309A26.29,26.29,0,0,1,267,335.25H192V156.75h10.48a90.87,90.87,0,0,1,90.77,90.77Zm0,0" transform="translate(0 -0.75)" style="fill:#00a963"/></g></g></svg>