<svg xmlns="http://www.w3.org/2000/svg" viewBox="0 0 372 366"><g id="Layer_2" data-name="Layer 2"><g id="Layer_1-2" data-name="Layer 1"><rect x="252" y="30" width="12" height="30" style="fill:#4d5d7b"/><rect x="312" y="30" width="12" height="30" style="fill:#4d5d7b"/><polyline points="222 360 222 84 354 84 354 360" style="fill:#5791cc"/><rect x="258" y="324" width="60" height="36" style="fill:#f4b953"/><rect x="150" y="240" width="72" height="120" style="fill:#3873b9"/><polyline points="18 360 18 174 150 174 150 360" style="fill:#5791cc"/><rect x="246" y="132" width="24" height="24" style="fill:#fff"/><rect x="306" y="132" width="24" height="24" style="fill:#fff"/><rect x="246" y="180" width="24" height="24" style="fill:#fff"/><rect x="306" y="180" width="24" height="24" style="fill:#fff"/><rect x="246" y="228" width="24" height="24" style="fill:#fff"/><rect x="306" y="228" width="24" height="24" style="fill:#fff"/><rect x="246" y="276" width="24" height="24" style="fill:#fff"/><rect x="306" y="276" width="24" height="24" style="fill:#fff"/><rect x="42" y="198" width="24" height="24" style="fill:#fff"/><rect x="102" y="198" width="24" height="24" style="fill:#fff"/><rect x="42" y="246" width="24" height="24" style="fill:#fff"/><rect x="102" y="246" width="24" height="24" style="fill:#fff"/><rect x="42" y="294" width="24" height="24" style="fill:#fff"/><rect x="102" y="294" width="24" height="24" style="fill:#fff"/><polyline points="234 84 234 60 342 60 342 84" style="fill:#f4b953"/><polyline points="30 174 30 150 138 150 138 174" style="fill:#f4b953"/><path d="M270,18c0,9.94-5.37,18-12,18s-12-8.06-12-18,5.37-18,12-18,12,8.06,12,18Zm0,0" transform="translate(0 0)" style="fill:#669e4e"/><path d="M330,18c0,9.94-5.37,18-12,18s-12-8.06-12-18,5.37-18,12-18,12,8.06,12,18Zm0,0" transform="translate(0 0)" style="fill:#669e4e"/><rect y="354" width="372" height="12" style="fill:#4d5d7b"/><rect x="168" y="258" width="12" height="12" style="fill:#fff"/><rect x="192" y="258" width="12" height="12" style="fill:#fff"/><rect x="168" y="282" width="12" height="12" style="fill:#fff"/><rect x="192" y="282" width="12" height="12" style="fill:#fff"/><rect x="168" y="306" width="12" height="12" style="fill:#fff"/><rect x="192" y="306" width="12" height="12" style="fill:#fff"/><rect x="168" y="330" width="12" height="12" style="fill:#fff"/><rect x="192" y="330" width="12" height="12" style="fill:#fff"/><rect x="240" y="102" width="96" height="12" style="fill:#fff"/></g></g></svg>