<svg xmlns="http://www.w3.org/2000/svg" width="25" height="25" viewBox="0 0 25 25">
  <path id="Icon_map-doctor" data-name="Icon map-doctor" d="M22.555,7.1H19.991V4.323A3.532,3.532,0,0,0,16.5.72H9.936a3.531,3.531,0,0,0-3.487,3.6V7.1H3.884A3.138,3.138,0,0,0,.72,10.261V22.5A3.193,3.193,0,0,0,3.884,25.72H22.555A3.194,3.194,0,0,0,25.72,22.5V10.261A3.139,3.139,0,0,0,22.555,7.1ZM8.533,4.323a1.522,1.522,0,0,1,1.4-1.476H16.5a1.523,1.523,0,0,1,1.4,1.476V7.1H8.533ZM18.949,18.805H15.3v3.723H11.137V18.805H7.491V14.55h3.646V10.826H15.3V14.55h3.646Z" transform="translate(-0.72 -0.72)" fill="#38b2e3"/>
</svg>
