<svg id="Layer_1" data-name="Layer 1" xmlns="http://www.w3.org/2000/svg" viewBox="0 0 85.77 70.07"><title>history_appointment</title><path d="M88.47,56.12a14.43,14.43,0,0,0,.79-1.93c2.63-7.74-1.34-17-9.69-19.25C78.67,23.61,70.7,15.83,61.7,14.5,51.41,13,42,19.53,38.83,29.92a12.5,12.5,0,0,0-10.94.86A13.41,13.41,0,0,0,23.58,34a15,15,0,0,0-3.64,7.46,12.68,12.68,0,0,0-2.17.48,10.64,10.64,0,0,0-7.26,8.89,13.19,13.19,0,0,0,.93,6.69A10.34,10.34,0,0,0,22.38,63.8a1.09,1.09,0,0,1,.75.24A21.42,21.42,0,0,0,32,81c8.28,5.75,18.94,4,25.67-3.91A11.8,11.8,0,0,0,68,80.93a12.74,12.74,0,0,0,9.39-6.32,21.06,21.06,0,0,0,3.07.8c4,.44,7.3-1.16,9.69-4.78a10.52,10.52,0,0,0,1.79-6.32A11,11,0,0,0,88.47,56.12Z" transform="translate(-7.94 -14.28)" fill="#6f35a5"/><path d="M76.63,49.52H88.34a4.87,4.87,0,0,0,1-9.63,4.35,4.35,0,0,0,0-.63,5,5,0,0,0-9.06-3,5.56,5.56,0,0,0-11-.63,5.65,5.65,0,0,0,0,2.17,3.47,3.47,0,0,0-6,2.13,4.73,4.73,0,0,0-2.71.19,4.92,4.92,0,0,0-3.21,4.37,4.86,4.86,0,0,0,4.86,5.06H73.48" transform="translate(-7.94 -14.28)" fill="#fdfcef"/><path d="M88.34,50H76.63a.5.5,0,0,1-.5-.5.5.5,0,0,1,.5-.5H88.34a4.37,4.37,0,0,0,.9-8.64.5.5,0,0,1-.4-.55,3.64,3.64,0,0,0,0-.57,4.54,4.54,0,0,0-8.16-2.73.49.49,0,0,1-.54.18.5.5,0,0,1-.36-.44,5.06,5.06,0,0,0-10-.58,5.27,5.27,0,0,0,0,2,.52.52,0,0,1-.26.55.5.5,0,0,1-.6-.11,3,3,0,0,0-5.15,1.83.5.5,0,0,1-.6.45,4.2,4.2,0,0,0-2.43.17,4.43,4.43,0,0,0-2.88,3.92A4.36,4.36,0,0,0,62.26,49H73.48a.5.5,0,0,1,.5.5.5.5,0,0,1-.5.5H62.26a5.35,5.35,0,0,1-5.36-5.58,5.46,5.46,0,0,1,3.53-4.82,5.18,5.18,0,0,1,2.46-.3,4,4,0,0,1,5.83-2.66,6.46,6.46,0,0,1,.1-1.15A6.09,6.09,0,0,1,74,30.64,6,6,0,0,1,78.62,32a6.15,6.15,0,0,1,2,3.18,5.47,5.47,0,0,1,3.69-1.42,5.55,5.55,0,0,1,5.54,5.54v.25A5.37,5.37,0,0,1,88.34,50Z" transform="translate(-7.94 -14.28)" fill="#472b29"/><path d="M73.81,38.8a3.15,3.15,0,0,0-3.47,2.78,3,3,0,0,0,0,.6,2.14,2.14,0,0,0-1.45-.7,2,2,0,0,0-2.15,1.62,3.09,3.09,0,0,0-.62-.11,2.75,2.75,0,0,0-3,2.43" transform="translate(-7.94 -14.28)" fill="#fdfcef"/><path d="M63.13,45.67h0a.25.25,0,0,1-.23-.26,3,3,0,0,1,3.29-2.67,2.9,2.9,0,0,1,.41.06,2.27,2.27,0,0,1,2.35-1.57,2.47,2.47,0,0,1,1.16.39.13.13,0,0,1,0-.06,3.37,3.37,0,0,1,3.72-3,.26.26,0,0,1,.24.26.25.25,0,0,1-.25.24h0a2.9,2.9,0,0,0-3.2,2.54,2.51,2.51,0,0,0,0,.55.25.25,0,0,1-.44.21,1.85,1.85,0,0,0-1.28-.62A1.72,1.72,0,0,0,67,43.13a.25.25,0,0,1-.11.17.31.31,0,0,1-.21,0,2.28,2.28,0,0,0-.56-.1,2.5,2.5,0,0,0-2.77,2.2A.23.23,0,0,1,63.13,45.67Z" transform="translate(-7.94 -14.28)" fill="#472b29"/><path d="M90.31,40.46a3,3,0,0,0-4.57,1.83" transform="translate(-7.94 -14.28)" fill="#fdfcef"/><path d="M85.74,42.54h0a.25.25,0,0,1-.19-.3,2.77,2.77,0,0,1,.22-.63,3.51,3.51,0,0,1,4.7-1.38.25.25,0,0,1-.21.46,3,3,0,0,0-4,1.14,2.47,2.47,0,0,0-.18.52A.26.26,0,0,1,85.74,42.54Z" transform="translate(-7.94 -14.28)" fill="#472b29"/><path d="M18.43,48.19h-10a.5.5,0,0,1-.5-.5.5.5,0,0,1,.5-.5h10a.51.51,0,0,1,.5.5A.5.5,0,0,1,18.43,48.19Zm2.87,0H19.86a.5.5,0,0,1-.5-.5.5.5,0,0,1,.5-.5H21.3a.51.51,0,0,1,.5.5A.5.5,0,0,1,21.3,48.19Zm4,0H22.8a.5.5,0,0,1-.5-.5.5.5,0,0,1,.5-.5h2.53a.5.5,0,0,1,.5.5A.5.5,0,0,1,25.33,48.19Zm0,1.86H15.76a.5.5,0,0,1-.5-.5.5.5,0,0,1,.5-.5h9.57a.5.5,0,0,1,.5.5A.5.5,0,0,1,25.33,50.05Zm-11.3,0h-.57a.5.5,0,0,1-.5-.5.5.5,0,0,1,.5-.5H14a.5.5,0,0,1,.5.5A.5.5,0,0,1,14,50.05Zm-2.36,0H10.22a.5.5,0,0,1-.5-.5.5.5,0,0,1,.5-.5h1.45a.51.51,0,0,1,.5.5A.5.5,0,0,1,11.67,50.05Zm9.09-3.71h-5a.5.5,0,0,1-.5-.5.5.5,0,0,1,.5-.5h5a.5.5,0,0,1,.5.5A.5.5,0,0,1,20.76,46.34Zm0-1.86H19.51a.5.5,0,1,1,0-1h1.25a.5.5,0,0,1,0,1Zm-3.25,7.43H15.76a.5.5,0,0,1,0-1h1.75a.5.5,0,1,1,0,1ZM71.39,22h-10a.5.5,0,0,1-.5-.5.5.5,0,0,1,.5-.5h10a.51.51,0,0,1,.5.5A.5.5,0,0,1,71.39,22Zm2.87,0H72.82a.5.5,0,0,1-.5-.5.5.5,0,0,1,.5-.5h1.44a.51.51,0,0,1,.5.5A.5.5,0,0,1,74.26,22Zm4,0H75.76a.5.5,0,0,1-.5-.5.5.5,0,0,1,.5-.5h2.53a.5.5,0,0,1,.5.5A.5.5,0,0,1,78.29,22Zm-2-3.71H66.7a.5.5,0,0,1,0-1h9.58a.5.5,0,0,1,0,1ZM65,18.31H64.4a.5.5,0,0,1,0-1H65a.5.5,0,0,1,0,1Zm-2.36,0H61.16a.5.5,0,0,1,0-1h1.45a.5.5,0,0,1,0,1Zm11.11,1.86h-5a.5.5,0,0,1-.5-.5.5.5,0,0,1,.5-.5h5a.5.5,0,0,1,.5.5A.5.5,0,0,1,73.72,20.17Z" transform="translate(-7.94 -14.28)" fill="#fff"/><path d="M73.72,18.31H72.47a.5.5,0,0,1,0-1h1.25a.5.5,0,0,1,0,1Zm-6.45,1.86H65.52a.5.5,0,0,1-.5-.5.5.5,0,0,1,.5-.5h1.75a.5.5,0,0,1,.5.5A.51.51,0,0,1,67.27,20.17Z" transform="translate(-7.94 -14.28)" fill="#fff"/><path d="M66.65,73H37.11a6.87,6.87,0,0,1-6.85-6.84V36.64a6.88,6.88,0,0,1,6.85-6.85H66.65a6.87,6.87,0,0,1,6.84,6.85V66.18A6.86,6.86,0,0,1,66.65,73Z" transform="translate(-7.94 -14.28)" fill="#fac583"/><path d="M66.65,73.72H37.11a7.55,7.55,0,0,1-7.55-7.54V36.64a7.56,7.56,0,0,1,7.55-7.55H66.65a7.55,7.55,0,0,1,7.54,7.55V66.18A7.55,7.55,0,0,1,66.65,73.72ZM37.11,30.49A6.15,6.15,0,0,0,31,36.64V66.18a6.14,6.14,0,0,0,6.14,6.14H66.65a6.14,6.14,0,0,0,6.14-6.14V36.64a6.16,6.16,0,0,0-6.14-6.15Z" transform="translate(-7.94 -14.28)" fill="#472b29"/><path d="M64.86,69.94h-26a5.57,5.57,0,0,1-5.55-5.55v-26a5.57,5.57,0,0,1,5.55-5.55h26a5.57,5.57,0,0,1,5.55,5.55v26A5.57,5.57,0,0,1,64.86,69.94Z" transform="translate(-7.94 -14.28)" fill="#fdfcee"/><path d="M64.78,70.29H39a6,6,0,0,1-6-6V38.51a6,6,0,0,1,6-6H63.54a.35.35,0,0,1,0,.7H39a5.29,5.29,0,0,0-5.28,5.28v25.8A5.29,5.29,0,0,0,39,69.59h25.8a5.29,5.29,0,0,0,5.28-5.28V50a.34.34,0,0,1,.35-.35.35.35,0,0,1,.35.35V64.3A6,6,0,0,1,64.78,70.29Zm5.63-22a.35.35,0,0,1-.35-.35V45.23a.35.35,0,0,1,.35-.35.35.35,0,0,1,.35.35V48A.36.36,0,0,1,70.41,48.33Z" transform="translate(-7.94 -14.28)" fill="#472b29"/><path d="M70.41,44.21a.35.35,0,0,1-.35-.35V42.49a.34.34,0,0,1,.35-.35.35.35,0,0,1,.35.35v1.37A.36.36,0,0,1,70.41,44.21Z" transform="translate(-7.94 -14.28)" fill="#472b29"/><path d="M61.64,58.17A3.56,3.56,0,0,1,58,61.53H46a3.52,3.52,0,0,1-3.59-3.36V45.45A3.38,3.38,0,0,1,46,42.27H58a3.42,3.42,0,0,1,3.64,3.18Z" transform="translate(-7.94 -14.28)" fill="#f2f0e7"/><path d="M58,61.9H46a3.91,3.91,0,0,1-4-3.73V45.45a3.74,3.74,0,0,1,4-3.55H58a3.76,3.76,0,0,1,4,3.55V58.17A3.93,3.93,0,0,1,58,61.9ZM46,42.65a3,3,0,0,0-3.22,2.8V58.17a3.16,3.16,0,0,0,3.22,3H58a3.17,3.17,0,0,0,3.26-3V45.45A3,3,0,0,0,58,42.65Z" transform="translate(-7.94 -14.28)" fill="#472b29"/><path d="M42.94,47.53H61.31V45.38c0-1.6-1.59-2.83-3.51-2.83H46.19c-1.91,0-3.47,1.23-3.47,2.83v2.15Z" transform="translate(-7.94 -14.28)" fill="#ff7081"/><path d="M56.51,47.78H42.61a.25.25,0,0,1,0-.5h13.9a.25.25,0,0,1,0,.5Zm-9.43-3.3a.5.5,0,0,1-.5-.5V40.1a.5.5,0,0,1,.5-.5.5.5,0,0,1,.5.5V44A.5.5,0,0,1,47.08,44.48Zm9.85,0a.5.5,0,0,1-.5-.5V40.1a.5.5,0,0,1,.5-.5.5.5,0,0,1,.5.5V44A.5.5,0,0,1,56.93,44.48Z" transform="translate(-7.94 -14.28)" fill="#472b29"/><path d="M46.15,52.7c0-1.45,1.38-2.07,2.64-2.07s2.85.55,2.85,2.18-1.31,2.07-2.74,2.07c-.57,0-1.49.14-1.49.88v.59h4.25v1.2H46.13v-1.8c0-1.57,1.42-2,2.77-2,.52,0,1.46-.09,1.46-.88s-.67-1.09-1.55-1.09c-.67,0-1.37.34-1.38,1Z" transform="translate(-7.94 -14.28)" fill="#cdcbbd"/><path d="M51.66,57.8H46.12a.25.25,0,0,1-.25-.25v-1.8c0-1.43,1.13-2.29,3-2.29.8,0,1.21-.21,1.21-.63,0-.76-.91-.84-1.3-.84-.55,0-1.12.27-1.13.71a.25.25,0,0,1-.25.25H46.15a.27.27,0,0,1-.18-.08.29.29,0,0,1-.07-.18c0-1.59,1.51-2.31,2.89-2.31s3.1.63,3.1,2.42c0,2.08-1.71,2.32-3,2.32-.29,0-1.24.05-1.24.64v.34h4a.25.25,0,0,1,.25.25v1.2A.25.25,0,0,1,51.66,57.8Zm-5.29-.5h5v-.7h-4a.25.25,0,0,1-.25-.25v-.59c0-.71.65-1.13,1.74-1.13,1.75,0,2.49-.55,2.49-1.82,0-1.79-2-1.93-2.6-1.93-1.1,0-2.21.48-2.37,1.57h.79a1.58,1.58,0,0,1,1.6-1c1.11,0,1.8.51,1.8,1.34,0,.43-.22,1.13-1.71,1.13-.95,0-2.53.24-2.53,1.79Z" transform="translate(-7.94 -14.28)" fill="#472b29"/><path d="M57.51,51.94H53.82v1.2h1.33c1.45,0,2.75.59,2.74,2.19a2.38,2.38,0,0,1-2.67,2.3c-1.51,0-2.8-.54-2.81-2.14h1.28c0,.75.86.95,1.51.95s1.41-.3,1.41-1.11-.76-1-1.46-1H52.56V50.72h4.95v1.22Z" transform="translate(-7.94 -14.28)" fill="#cdcbbd"/><path d="M55.22,57.88c-2,0-3-.85-3.06-2.39a.27.27,0,0,1,.08-.18.26.26,0,0,1,.17-.07h1.28a.25.25,0,0,1,.25.25c0,.65,1,.7,1.26.7s1.16-.18,1.16-.86a.6.6,0,0,0-.16-.44,1.53,1.53,0,0,0-1.05-.3H52.56a.25.25,0,0,1-.25-.25V50.72a.25.25,0,0,1,.25-.25h4.95a.25.25,0,0,1,.25.25v1.21a.25.25,0,0,1-.25.25H54.07v.71h1.08a3.31,3.31,0,0,1,2.37.8,2.16,2.16,0,0,1,.62,1.64C58.14,57.09,56.67,57.88,55.22,57.88Zm-2.54-2.14c.15,1.35,1.44,1.64,2.54,1.64a2.15,2.15,0,0,0,2.42-2.05A1.7,1.7,0,0,0,57.17,54a2.85,2.85,0,0,0-2-.65H53.82a.25.25,0,0,1-.25-.25v-1.2a.25.25,0,0,1,.25-.25h3.44V51H52.81v3.11h2.34a2,2,0,0,1,1.41.45,1.08,1.08,0,0,1,.3.8,1.48,1.48,0,0,1-1.66,1.35c-1,0-1.59-.36-1.73-.95Z" transform="translate(-7.94 -14.28)" fill="#472b29"/><path d="M59.69,47.78H58a.25.25,0,0,1,0-.5h1.73a.25.25,0,0,1,0,.5Z" transform="translate(-7.94 -14.28)" fill="#472b29"/><path d="M61.65,47.78h-.77a.25.25,0,1,1,0-.5h.77a.25.25,0,1,1,0,.5Z" transform="translate(-7.94 -14.28)" fill="#472b29"/><path d="M40.61,75.78h3.53a3.72,3.72,0,0,0,.78-7.37A3.85,3.85,0,0,0,41,64.08a4,4,0,0,0-3.14,1.53,4.36,4.36,0,0,0-8.6-.48,4.21,4.21,0,0,0,0,1.66,2.75,2.75,0,0,0-2-.85,2.69,2.69,0,0,0-2.71,2.48A3.82,3.82,0,0,0,20,71.91a3.76,3.76,0,0,0,3.8,3.87h8.78m1.63,0h.36" transform="translate(-7.94 -14.28)" fill="#fdfcef"/><path d="M44.14,76.28H40.61a.5.5,0,0,1,0-1h3.53a3.22,3.22,0,0,0,.68-6.38.5.5,0,0,1-.4-.55,3,3,0,0,0,0-.42,3.45,3.45,0,0,0-6.18-2,.51.51,0,0,1-.54.17.5.5,0,0,1-.36-.44A3.71,3.71,0,0,0,36,63.06a3.88,3.88,0,0,0-3-.85,3.74,3.74,0,0,0-3.28,4.48.5.5,0,0,1-.26.54.47.47,0,0,1-.59-.1,2.27,2.27,0,0,0-1.63-.69,2.19,2.19,0,0,0-2.21,2,.49.49,0,0,1-.2.36.51.51,0,0,1-.41.09,3.09,3.09,0,0,0-1.83.13,3.29,3.29,0,0,0-2.19,2.89,3.16,3.16,0,0,0,.89,2.33,3.32,3.32,0,0,0,2.42,1h8.77a.51.51,0,0,1,.5.5.5.5,0,0,1-.5.5H23.76A4.34,4.34,0,0,1,20.62,75a4.16,4.16,0,0,1-1.17-3.06,4.31,4.31,0,0,1,2.84-3.79,4.14,4.14,0,0,1,1.87-.25,3.23,3.23,0,0,1,4.53-2.09,4.43,4.43,0,0,1,.09-.72,4.82,4.82,0,0,1,4.15-3.82,4.88,4.88,0,0,1,3.71,1.07,4.62,4.62,0,0,1,1.54,2.29,4.46,4.46,0,0,1,7.27,3.35V68a4.22,4.22,0,0,1-1.31,8.25Zm-9.62,0h-.36a.5.5,0,0,1,0-1h.36a.5.5,0,0,1,.5.5A.5.5,0,0,1,34.52,76.28Z" transform="translate(-7.94 -14.28)" fill="#472b29"/><path d="M42.44,70.5h-.06a.25.25,0,0,1-.19-.3,2.64,2.64,0,0,1,.17-.47,2.8,2.8,0,0,1,3.71-1,.25.25,0,0,1-.21.46,2.28,2.28,0,0,0-3,.77,1.74,1.74,0,0,0-.13.36A.25.25,0,0,1,42.44,70.5Z" transform="translate(-7.94 -14.28)" fill="#472b29"/><path d="M37.3,76.28H36.2a.5.5,0,0,1,0-1h1.1a.5.5,0,0,1,0,1Z" transform="translate(-7.94 -14.28)" fill="#472b29"/></svg>