<svg xmlns="http://www.w3.org/2000/svg" viewBox="0 0 384 384"><g id="Layer_2" data-name="Layer 2"><g id="Layer_1-2" data-name="Layer 1"><path d="M344.23,39.77,304.45,0,248.77,55.68,288.54,159.1Zm0,0" transform="translate(0 0)" style="fill:#2e3e53"/><path d="M344.23,39.77l-87.51,87.51,71.6,7.95L384,79.55Zm0,0" transform="translate(0 0)" style="fill:#16202d"/><path d="M24.14,321.23,0,384l75.27-43.45Zm0,0" transform="translate(0 0)" style="fill:#2e3e53"/><path d="M0,384l62.77-24.14-3.41-35.22Zm0,0" transform="translate(0 0)" style="fill:#16202d"/><path d="M138.91,276.91,49.72,254.73l-25.58,66.5,19.31,19.32Zm0,0" transform="translate(0 0)" style="fill:#fff0bf"/><path d="M123,261,43.45,340.55l19.32,19.31,66.5-25.58Zm0,0" transform="translate(0 0)" style="fill:#fed19c"/><path d="M288.54,95.46,248.77,55.68,217,87.5l23.86,119.33Zm0,0" transform="translate(0 0)" style="fill:#e0f3fd"/><path d="M209,175l87.51-8,31.82-31.82L288.54,95.46Zm0,0" transform="translate(0 0)" style="fill:#c1e8fb"/><path d="M89.49,294.51l39.78,39.77L296.5,167.05l-39.78-39.77L141.29,179.07Zm0,0" transform="translate(0 0)" style="fill:#1e58a8"/><path d="M49.7,254.72,216.9,87.52l39.77,39.76L89.46,294.49Zm0,0" transform="translate(0 0)" style="fill:#217bc0"/></g></g></svg>