<svg xmlns="http://www.w3.org/2000/svg" viewBox="0 0 50 50"><g id="Layer_2" data-name="Layer 2"><g id="Layer_1-2" data-name="Layer 1"><rect width="50" height="50" rx="3.38" style="fill:#38b2e3"/><path d="M22.67,15l-.49,2.52a8,8,0,0,0-2.25,1.29L17.51,18l-2.34,4,1.94,1.69a7.62,7.62,0,0,0,0,2.58h0L15.17,28l2.34,4,2.42-.83a8,8,0,0,0,2.25,1.29L22.67,35h4.66l.49-2.52a8.09,8.09,0,0,0,2.25-1.29l2.42.83,2.34-4-1.94-1.69a7.62,7.62,0,0,0,0-2.58h0L34.83,22l-2.34-4-2.42.83a8,8,0,0,0-2.25-1.29L27.33,15Zm1.64,2h1.38l.38,2,1.05.39a6.05,6.05,0,0,1,1.68,1l.86.71,1.93-.66.68,1.18-1.53,1.34.17,1.1h0a5.27,5.27,0,0,1,0,1.94l-.18,1.1,1.54,1.34-.69,1.18-1.92-.66-.86.71a6.05,6.05,0,0,1-1.68,1h0L26.07,31l-.39,2H24.31l-.38-2-1.05-.39a6.05,6.05,0,0,1-1.68-1l-.86-.71-1.93.66-.68-1.18,1.54-1.34L19.09,26h0a5.27,5.27,0,0,1,0-1.94l.18-1.1-1.54-1.34.68-1.18,1.93.66.86-.71a6.05,6.05,0,0,1,1.68-1L23.93,19ZM25,21a4,4,0,1,0,4,4A4,4,0,0,0,25,21Zm0,2a2,2,0,1,1-2,2A2,2,0,0,1,25,23Z" style="fill:#fff"/></g></g></svg>