<svg xmlns="http://www.w3.org/2000/svg" xmlns:xlink="http://www.w3.org/1999/xlink" viewBox="0 0 497.04 494.34"><defs><clipPath id="clip-path" transform="translate(0 0)"><rect width="497.04" height="494.34" style="fill:none"/></clipPath></defs><g id="Layer_2" data-name="Layer 2"><g id="Layer_1-2" data-name="Layer 1"><g style="clip-path:url(#clip-path)"><path d="M355.33,201.77,103.71,454.84c-19,22-54.12,23.41-74.6,2.93h0C8.63,437.29,8.63,402.18,32,383.16L293.89,140.33c-11.71-33.65-2.93-71.68,23.4-98,27.79-27.8,68.76-35.11,103.86-21.95L368.49,73l54.13,54.12L475.28,74.5c13.17,35.11,5.85,74.61-21.94,103.86C427,204.69,389,212,355.33,201.77Z" transform="translate(0 0)" style="fill:#87bac5"/><path d="M327.53,52.56a80.06,80.06,0,0,0-19,83.38A16.51,16.51,0,0,1,304.13,152L42.27,393.4a37.58,37.58,0,0,0-1.46,54.13c14.63,14.63,39.5,13.16,54.13-1.46L346.55,191.53c4.39-4.39,10.24-5.85,14.63-2.93a84.6,84.6,0,0,0,83.38-19c17.55-17.56,24.87-41,23.4-64.37l-35.1,32.18a14.14,14.14,0,0,1-20.48,0L358.25,83.28a14.14,14.14,0,0,1,0-20.48L391.9,29.15c-23.41-1.46-46.82,5.85-64.37,23.41ZM18.87,468C-7.46,440.21-6,396.33,21.79,371.46l256-235.52A110.33,110.33,0,0,1,307.05,32.08c32.18-32.19,79-39.5,120-24.87,4.38,1.46,7.31,5.85,8.77,10.24a11.79,11.79,0,0,1-4.39,13.16L389,73l33.65,33.64,41-42.42c2.92-2.93,8.77-4.39,13.16-4.39,4.39,1.46,8.78,4.39,10.24,8.78a111,111,0,0,1-24.87,118.49c-27.79,27.79-68.75,38-103.86,29.26L114,465.08c-23.4,27.8-67.29,30.72-95.08,2.93Z" transform="translate(0 0)" style="fill:#0c060d"/></g><path d="M364.1,162.27l-30.72-30.72a14.48,14.48,0,0,1,20.48-20.48l30.72,30.72a14.48,14.48,0,1,1-20.48,20.48Z" transform="translate(0 0)" style="fill:#0c060d"/><polygon points="116.88 68.65 143.21 111.07 339.23 302.71 302.66 339.28 105.18 149.11 62.75 124.24 23.26 70.11 61.29 30.61 116.88 68.65 116.88 68.65" style="fill:#fff"/><path d="M73,114l39.5,23.4c1.46,0,1.46,1.47,2.93,1.47L301.2,318.8l16.09-16.09L133,121.31c-1.46,0-1.46-1.46-1.46-2.92l-24.87-39.5L62.75,49.63,42.27,71.57,73,114ZM302.66,353.91a13.31,13.31,0,0,1-10.24-4.39L96.4,160.81l-41-23.41L51.05,133,11.55,77.43C7.16,73,7.16,64.26,13,59.87l36.57-39.5C54,16,62.75,14.52,68.6,18.91l55.59,38,4.39,4.38,24.87,41L348,292.47A14.14,14.14,0,0,1,348,313l-36.57,38c-1.46,1.46-4.39,2.93-8.78,2.93Z" transform="translate(0 0)" style="fill:#0c060d"/><path d="M473.82,425.59l-42.43,43.88c-11.7,13.17-32.18,13.17-45.34,0L276.33,362.68l86.31-89.23L472.35,380.24c13.17,13.16,13.17,33.64,1.47,45.35Z" transform="translate(0 0)" style="fill:#f05271"/><path d="M473.82,425.59l-42.43,43.88c-11.7,13.17-32.18,13.17-45.34,0L276.33,362.68l86.31-89.23L472.35,380.24c13.17,13.16,13.17,33.64,1.47,45.35Z" transform="translate(0 0)" style="fill:#fdbb2a"/><polygon points="363.67 275.11 429.82 339.27 343.25 428.52 277.1 364.36 363.67 275.11 363.67 275.11" style="fill:#de9532"/><g style="clip-path:url(#clip-path)"><polygon points="363.59 275.97 409.8 320.79 323.23 410.04 277.03 365.23 363.59 275.97 363.59 275.97" style="fill:#fff"/><path d="M296.81,364.15l99.48,96.54c5.85,5.86,17.55,5.86,23.4,0l42.42-43.88c5.85-7.32,5.85-17.56,0-23.41l-99.47-96.55-65.83,67.3Zm79,117L266.09,374.39a14.14,14.14,0,0,1,0-20.48l86.31-89.24a14.14,14.14,0,0,1,20.48,0L482.59,371.46c19,17.55,19,46.81,1.47,65.83l-42.43,43.88c-17.55,17.56-46.81,17.56-65.83,0Z" transform="translate(0 0)" style="fill:#0c060d"/></g><path d="M321.68,424.12a13.26,13.26,0,0,1-10.24-4.39,14.14,14.14,0,0,1,0-20.48L397.75,310a14.48,14.48,0,0,1,20.48,20.48l-86.31,89.23a13.27,13.27,0,0,1-10.24,4.39Z" transform="translate(0 0)" style="fill:#0c060d"/></g></g></svg>