<svg xmlns="http://www.w3.org/2000/svg" viewBox="0 0 50 50"><g id="Layer_2" data-name="Layer 2"><g id="Layer_1-2" data-name="Layer 1"><rect width="50" height="50" rx="3.38" style="fill:#38b2e3"/><path id="Icon_awesome-calendar-alt" data-name="Icon awesome-calendar-alt" d="M12.5,35.15a2.53,2.53,0,0,0,2.68,2.35H34.82a2.53,2.53,0,0,0,2.68-2.35V21.87h-25Zm17.86-9.57A.63.63,0,0,1,31,25h2.23a.64.64,0,0,1,.67.58v2a.64.64,0,0,1-.67.58H31a.63.63,0,0,1-.67-.58Zm0,6.25a.63.63,0,0,1,.67-.58h2.23a.64.64,0,0,1,.67.58v2a.64.64,0,0,1-.67.58H31a.63.63,0,0,1-.67-.58Zm-7.15-6.25a.64.64,0,0,1,.67-.58h2.24a.64.64,0,0,1,.67.58v2a.64.64,0,0,1-.67.58H23.88a.64.64,0,0,1-.67-.58Zm0,6.25a.64.64,0,0,1,.67-.58h2.24a.64.64,0,0,1,.67.58v2a.64.64,0,0,1-.67.58H23.88a.64.64,0,0,1-.67-.58Zm-7.14-6.25a.64.64,0,0,1,.67-.58H19a.63.63,0,0,1,.67.58v2a.63.63,0,0,1-.67.58H16.74a.64.64,0,0,1-.67-.58Zm0,6.25a.64.64,0,0,1,.67-.58H19a.63.63,0,0,1,.67.58v2a.63.63,0,0,1-.67.58H16.74a.64.64,0,0,1-.67-.58ZM34.82,15.62H32.14V13.28a.84.84,0,0,0-.89-.78H29.46a.84.84,0,0,0-.89.78v2.34H21.43V13.28a.84.84,0,0,0-.89-.78H18.75a.84.84,0,0,0-.89.78v2.34H15.18A2.53,2.53,0,0,0,12.5,18v2.34h25V18A2.53,2.53,0,0,0,34.82,15.62Z" style="fill:#fff"/></g></g></svg>