<svg id="Layer_1" data-name="Layer 1" xmlns="http://www.w3.org/2000/svg" viewBox="0 0 84.34 70.36"><title>edit_calendar_project</title><path d="M88.7,55.68a16.93,16.93,0,0,0,.8-2c2.63-7.77-1.35-17.07-9.73-19.32C78.86,23,70.86,15.22,61.83,13.88c-10.34-1.52-19.82,5-23,15.49a12.54,12.54,0,0,0-11,.86,13.63,13.63,0,0,0-4.33,3.23A15,15,0,0,0,19.89,41a12.1,12.1,0,0,0-2.18.49,10.65,10.65,0,0,0-7.29,8.92,13.28,13.28,0,0,0,.94,6.72,10.37,10.37,0,0,0,11,6.31,1.08,1.08,0,0,1,.75.23,21.52,21.52,0,0,0,8.88,17c8.32,5.78,19,4,25.78-3.92a11.88,11.88,0,0,0,10.39,3.88,12.85,12.85,0,0,0,9.43-6.35,21.19,21.19,0,0,0,3.08.8c4,.45,7.32-1.16,9.73-4.8a10.6,10.6,0,0,0,1.79-6.35A11,11,0,0,0,88.7,55.68Z" transform="translate(-7.84 -13.66)" fill="#6f35a5"/><path d="M18.37,47.71h-10a.5.5,0,0,1-.5-.5.5.5,0,0,1,.5-.5h10a.51.51,0,0,1,.5.5A.5.5,0,0,1,18.37,47.71Zm2.88,0H19.8a.5.5,0,0,1-.5-.5.51.51,0,0,1,.5-.5h1.45a.5.5,0,0,1,.5.5A.5.5,0,0,1,21.25,47.71Zm4.05,0H22.76a.5.5,0,0,1-.5-.5.5.5,0,0,1,.5-.5H25.3a.5.5,0,0,1,.5.5A.5.5,0,0,1,25.3,47.71Zm0,1.87H15.69a.5.5,0,0,1-.5-.5.5.5,0,0,1,.5-.5H25.3a.5.5,0,0,1,.5.5A.5.5,0,0,1,25.3,49.58ZM14,49.58h-.58a.5.5,0,0,1-.5-.5.5.5,0,0,1,.5-.5H14a.5.5,0,0,1,.5.5A.51.51,0,0,1,14,49.58Zm-2.38,0H10.12a.51.51,0,0,1-.5-.5.5.5,0,0,1,.5-.5h1.46a.5.5,0,0,1,.5.5A.5.5,0,0,1,11.58,49.58Zm9.14-3.73h-5a.5.5,0,0,1-.5-.5.5.5,0,0,1,.5-.5h5a.5.5,0,0,1,.5.5A.51.51,0,0,1,20.72,45.85Zm0-1.87H19.46a.5.5,0,0,1-.5-.5.5.5,0,0,1,.5-.5h1.26a.51.51,0,0,1,.5.5A.5.5,0,0,1,20.72,44Zm-3.27,7.46H15.69a.5.5,0,0,1-.5-.5.5.5,0,0,1,.5-.5h1.76a.51.51,0,0,1,.5.5A.5.5,0,0,1,17.45,51.44Zm54.1-30h-10a.5.5,0,0,1-.5-.5.5.5,0,0,1,.5-.5h10a.5.5,0,0,1,.5.5A.51.51,0,0,1,71.55,21.44Zm2.88,0H73a.51.51,0,0,1-.5-.5.5.5,0,0,1,.5-.5h1.45a.5.5,0,0,1,.5.5A.51.51,0,0,1,74.43,21.44Zm4,0H75.94a.5.5,0,0,1-.5-.5.5.5,0,0,1,.5-.5h2.54a.5.5,0,0,1,.5.5A.5.5,0,0,1,78.48,21.44Zm-2-3.73H66.84a.5.5,0,0,1-.5-.5.5.5,0,0,1,.5-.5h9.62a.5.5,0,0,1,.5.5A.51.51,0,0,1,76.46,17.71Zm-11.35,0h-.58a.5.5,0,0,1-.5-.5.5.5,0,0,1,.5-.5h.58a.5.5,0,0,1,.5.5A.51.51,0,0,1,65.11,17.71Zm-2.38,0H61.27a.51.51,0,0,1-.5-.5.5.5,0,0,1,.5-.5h1.46a.5.5,0,0,1,.5.5A.5.5,0,0,1,62.73,17.71Zm11.16,1.86h-5a.5.5,0,0,1-.5-.5.5.5,0,0,1,.5-.5h5a.5.5,0,0,1,.5.5A.5.5,0,0,1,73.89,19.57Z" transform="translate(-7.84 -13.66)" fill="#fff"/><path d="M73.89,17.71H72.64a.5.5,0,0,1-.5-.5.5.5,0,0,1,.5-.5h1.25a.5.5,0,0,1,.5.5A.5.5,0,0,1,73.89,17.71Zm-6.48,1.86H65.65a.5.5,0,0,1-.5-.5.51.51,0,0,1,.5-.5h1.76a.5.5,0,0,1,.5.5A.5.5,0,0,1,67.41,19.57Z" transform="translate(-7.84 -13.66)" fill="#fff"/><path d="M72.77,56.37H83.14A4.31,4.31,0,0,0,84,47.84a4.93,4.93,0,0,0,0-.55,4.46,4.46,0,0,0-8-2.69A4.92,4.92,0,1,0,66.31,46,3.08,3.08,0,0,0,61,47.85a4.14,4.14,0,0,0-2.39.17,4.39,4.39,0,0,0-2.85,3.87,4.31,4.31,0,0,0,4.31,4.48H70" transform="translate(-7.84 -13.66)" fill="#fdfcef"/><path d="M83.14,56.87H72.77a.5.5,0,0,1-.5-.5.5.5,0,0,1,.5-.5H83.14a3.81,3.81,0,0,0,.78-7.54.5.5,0,0,1-.39-.55,3.91,3.91,0,0,0,0-.49,4,4,0,0,0-7.12-2.38.51.51,0,0,1-.54.17.49.49,0,0,1-.36-.44,4.47,4.47,0,0,0-1.61-3.09,4.42,4.42,0,0,0-7.13,4.32.5.5,0,0,1-.26.54.52.52,0,0,1-.6-.1,2.51,2.51,0,0,0-1.89-.83,2.59,2.59,0,0,0-2.57,2.41.54.54,0,0,1-.19.37.55.55,0,0,1-.41.08,3.61,3.61,0,0,0-2.11.15,3.89,3.89,0,0,0-2.53,3.42,3.83,3.83,0,0,0,3.81,4H70a.5.5,0,0,1,.5.5.5.5,0,0,1-.5.5H60.05a4.8,4.8,0,0,1-4.81-5,4.91,4.91,0,0,1,3.17-4.32,4.65,4.65,0,0,1,2.15-.27,3.59,3.59,0,0,1,3.49-2.8,3.55,3.55,0,0,1,1.66.41A5.86,5.86,0,0,1,65.8,44a5.44,5.44,0,0,1,4.65-4.36,5.37,5.37,0,0,1,4.12,1.18,5.45,5.45,0,0,1,1.79,2.75,5,5,0,0,1,8.21,3.76c0,.06,0,.12,0,.18a4.81,4.81,0,0,1-1.42,9.4Z" transform="translate(-7.84 -13.66)" fill="#472b29"/><path d="M84.89,48.35A2.87,2.87,0,0,0,81,49.47a2.3,2.3,0,0,0-.18.5" transform="translate(-7.84 -13.66)" fill="#fdfcef"/><path d="M80.84,50.22h-.06a.24.24,0,0,1-.18-.3,2.18,2.18,0,0,1,.19-.56A3.14,3.14,0,0,1,85,48.12a.25.25,0,0,1,.12.34.26.26,0,0,1-.33.12,2.63,2.63,0,0,0-3.54,1,2.18,2.18,0,0,0-.16.45A.25.25,0,0,1,80.84,50.22Z" transform="translate(-7.84 -13.66)" fill="#472b29"/><path d="M67.76,67.75H34.39a1,1,0,0,1-1-1V36.53A4.66,4.66,0,0,1,38,31.88H64.1a4.67,4.67,0,0,1,4.66,4.65V66.75A1,1,0,0,1,67.76,67.75Z" transform="translate(-7.84 -13.66)" fill="#fdfcef"/><path d="M67.76,68.45H34.39a1.7,1.7,0,0,1-1.7-1.7V36.53A5.36,5.36,0,0,1,38,31.18H64.1a5.36,5.36,0,0,1,5.36,5.35V66.75A1.7,1.7,0,0,1,67.76,68.45ZM38,32.58a4,4,0,0,0-3.95,4V66.75a.3.3,0,0,0,.3.3H67.76a.31.31,0,0,0,.3-.3V36.53a4,4,0,0,0-4-4Z" transform="translate(-7.84 -13.66)" fill="#472b29"/><path d="M64.68,32.38l-27.13,0a3.56,3.56,0,0,0-3.49,3.75v3.74h34V36.11A3.45,3.45,0,0,0,64.68,32.38Z" transform="translate(-7.84 -13.66)" fill="#ff7081"/><path d="M65.52,40h-1a.38.38,0,0,1-.37-.38.37.37,0,0,1,.37-.37h1a.36.36,0,0,1,.37.37A.37.37,0,0,1,65.52,40Zm-2,0H33.64a.38.38,0,0,1-.38-.38.37.37,0,0,1,.38-.37H63.53a.37.37,0,0,1,.37.37A.38.38,0,0,1,63.53,40Z" transform="translate(-7.84 -13.66)" fill="#472b29"/><path d="M38.12,35.36a1,1,0,1,0,1,1A1,1,0,0,0,38.12,35.36Z" transform="translate(-7.84 -13.66)" fill="#fdfcef"/><path d="M38.12,37.86a1.5,1.5,0,1,1,1.5-1.5A1.5,1.5,0,0,1,38.12,37.86Zm0-2a.5.5,0,0,0,0,1,.51.51,0,0,0,.5-.5A.5.5,0,0,0,38.12,35.86Z" transform="translate(-7.84 -13.66)" fill="#472b29"/><path d="M64,35.36a1,1,0,1,0,1,1A1,1,0,0,0,64,35.36Z" transform="translate(-7.84 -13.66)" fill="#fdfcef"/><path d="M64,37.86a1.5,1.5,0,1,1,1.49-1.5A1.5,1.5,0,0,1,64,37.86Zm0-2a.5.5,0,1,0,.49.5A.5.5,0,0,0,64,35.86Zm-.75-1.79a.7.7,0,0,1-.7-.7v-3a.7.7,0,1,1,1.4,0v3A.7.7,0,0,1,63.28,34.07Zm-3.49,0a.7.7,0,0,1-.7-.7v-3a.7.7,0,1,1,1.4,0v3A.7.7,0,0,1,59.79,34.07Zm-3.49,0a.7.7,0,0,1-.7-.7v-3a.7.7,0,1,1,1.4,0v3A.69.69,0,0,1,56.3,34.07Zm-3.48,0a.7.7,0,0,1-.7-.7v-3a.7.7,0,1,1,1.4,0v3A.7.7,0,0,1,52.82,34.07Zm-3.49,0a.7.7,0,0,1-.7-.7v-3a.7.7,0,1,1,1.4,0v3A.7.7,0,0,1,49.33,34.07Zm-3.49,0a.7.7,0,0,1-.7-.7v-3a.7.7,0,1,1,1.4,0v3A.7.7,0,0,1,45.84,34.07Zm-3.49,0a.7.7,0,0,1-.7-.7v-3a.71.71,0,1,1,1.41,0v3A.7.7,0,0,1,42.35,34.07Zm-3.48,0a.7.7,0,0,1-.7-.7v-3a.7.7,0,1,1,1.4,0v3A.7.7,0,0,1,38.87,34.07ZM68.51,40h-2a.38.38,0,0,1-.38-.38.37.37,0,0,1,.38-.37h2a.36.36,0,0,1,.37.37A.37.37,0,0,1,68.51,40Z" transform="translate(-7.84 -13.66)" fill="#472b29"/><path d="M44.1,44.58h1v3h-3V46.08" transform="translate(-7.84 -13.66)" fill="#cbc9bc"/><path d="M45.1,48h-3a.38.38,0,0,1-.38-.38V46.08a.38.38,0,1,1,.75,0V47.2h2.24V45H44.1a.38.38,0,1,1,0-.75h1a.38.38,0,0,1,.37.37v3A.38.38,0,0,1,45.1,48Z" transform="translate(-7.84 -13.66)" fill="#472b29"/><path d="M47.09,44.58h3v3h-3Z" transform="translate(-7.84 -13.66)" fill="#cbc9bc"/><path d="M50.08,48h-3a.38.38,0,0,1-.38-.38v-3a.38.38,0,0,1,.38-.37h3a.38.38,0,0,1,.37.37v3A.38.38,0,0,1,50.08,48Zm-2.62-.75H49.7V45H47.46Z" transform="translate(-7.84 -13.66)" fill="#472b29"/><path d="M52.07,44.58h3v3h-3Z" transform="translate(-7.84 -13.66)" fill="#cbc9bc"/><path d="M55.06,48h-3a.38.38,0,0,1-.38-.38v-3a.38.38,0,0,1,.38-.37h3a.38.38,0,0,1,.37.37v3A.38.38,0,0,1,55.06,48Zm-2.62-.75h2.24V45H52.44Z" transform="translate(-7.84 -13.66)" fill="#472b29"/><path d="M57.05,44.58h3v3h-3Z" transform="translate(-7.84 -13.66)" fill="#cbc9bc"/><path d="M60,48h-3a.38.38,0,0,1-.37-.38v-3a.38.38,0,0,1,.37-.37h3a.38.38,0,0,1,.38.37v3A.38.38,0,0,1,60,48Zm-2.61-.75h2.23V45H57.43Z" transform="translate(-7.84 -13.66)" fill="#472b29"/><path d="M62,44.58h3v3H62Z" transform="translate(-7.84 -13.66)" fill="#cbc9bc"/><path d="M65,48H62a.38.38,0,0,1-.37-.38v-3a.38.38,0,0,1,.37-.37h3a.38.38,0,0,1,.38.37v3A.38.38,0,0,1,65,48Zm-2.61-.75h2.24V45H62.41Z" transform="translate(-7.84 -13.66)" fill="#472b29"/><path d="M42.11,49.56h3v3h-3Z" transform="translate(-7.84 -13.66)" fill="#cbc9bc"/><path d="M45.1,52.93h-3a.38.38,0,0,1-.38-.38v-3a.38.38,0,0,1,.38-.37h3a.38.38,0,0,1,.37.37v3A.38.38,0,0,1,45.1,52.93Zm-2.62-.75h2.24V49.94H42.48Z" transform="translate(-7.84 -13.66)" fill="#472b29"/><path d="M47.09,49.56h3v3h-3Z" transform="translate(-7.84 -13.66)" fill="#cbc9bc"/><path d="M50.08,52.93h-3a.38.38,0,0,1-.38-.38v-3a.38.38,0,0,1,.38-.37h3a.38.38,0,0,1,.37.37v3A.38.38,0,0,1,50.08,52.93Zm-2.62-.75H49.7V49.94H47.46Z" transform="translate(-7.84 -13.66)" fill="#472b29"/><path d="M52.07,49.56h3v3h-3Z" transform="translate(-7.84 -13.66)" fill="#cbc9bc"/><path d="M55.06,52.93h-3a.38.38,0,0,1-.38-.38v-3a.38.38,0,0,1,.38-.37h3a.38.38,0,0,1,.37.37v3A.38.38,0,0,1,55.06,52.93Zm-2.62-.75h2.24V49.94H52.44Z" transform="translate(-7.84 -13.66)" fill="#472b29"/><path d="M57.05,49.56h3v3h-3Z" transform="translate(-7.84 -13.66)" fill="#cbc9bc"/><path d="M60,52.93h-3a.38.38,0,0,1-.37-.38v-3a.38.38,0,0,1,.37-.37h3a.38.38,0,0,1,.38.37v3A.38.38,0,0,1,60,52.93Zm-2.61-.75h2.23V49.94H57.43Z" transform="translate(-7.84 -13.66)" fill="#472b29"/><path d="M62,49.56h3v3H62Z" transform="translate(-7.84 -13.66)" fill="#cbc9bc"/><path d="M65,52.93H62a.38.38,0,0,1-.37-.38v-3a.38.38,0,0,1,.37-.37h3a.38.38,0,0,1,.38.37v3A.38.38,0,0,1,65,52.93Zm-2.61-.75h2.24V49.94H62.41Z" transform="translate(-7.84 -13.66)" fill="#472b29"/><path d="M37.13,49.56h3v3h-3Z" transform="translate(-7.84 -13.66)" fill="#cbc9bc"/><path d="M40.11,52.93h-3a.38.38,0,0,1-.38-.38v-3a.38.38,0,0,1,.38-.37h3a.38.38,0,0,1,.38.37v3A.38.38,0,0,1,40.11,52.93Zm-2.61-.75h2.24V49.94H37.5Z" transform="translate(-7.84 -13.66)" fill="#472b29"/><path d="M42.11,54.54h3v3h-3Z" transform="translate(-7.84 -13.66)" fill="#cbc9bc"/><path d="M45.1,57.91h-3a.38.38,0,0,1-.38-.38v-3a.38.38,0,0,1,.38-.38h3a.38.38,0,0,1,.37.38v3A.38.38,0,0,1,45.1,57.91Zm-2.62-.75h2.24V54.92H42.48Z" transform="translate(-7.84 -13.66)" fill="#472b29"/><path d="M47.09,54.54h3v3h-3Z" transform="translate(-7.84 -13.66)" fill="#cbc9bc"/><path d="M50.08,57.91h-3a.38.38,0,0,1-.38-.38v-3a.38.38,0,0,1,.38-.38h3a.38.38,0,0,1,.37.38v3A.38.38,0,0,1,50.08,57.91Zm-2.62-.75H49.7V54.92H47.46Z" transform="translate(-7.84 -13.66)" fill="#472b29"/><path d="M52.07,54.54h3v3h-3Z" transform="translate(-7.84 -13.66)" fill="#cbc9bc"/><path d="M55.06,57.91h-3a.38.38,0,0,1-.38-.38v-3a.38.38,0,0,1,.38-.38h3a.38.38,0,0,1,.37.38v3A.38.38,0,0,1,55.06,57.91Zm-2.62-.75h2.24V54.92H52.44Z" transform="translate(-7.84 -13.66)" fill="#472b29"/><path d="M60,57.53h-3v-3h3Z" transform="translate(-7.84 -13.66)" fill="#cbc9bc"/><path d="M57.05,56.63V54.54h2" transform="translate(-7.84 -13.66)" fill="#cbc9bc"/><path d="M57.05,57a.37.37,0,0,1-.37-.38V54.55a.37.37,0,0,1,.37-.38h2a.38.38,0,1,1,0,.75h-1.6v1.71A.38.38,0,0,1,57.05,57Z" transform="translate(-7.84 -13.66)" fill="#472b29"/><path d="M37.13,54.54h3v3h-3Z" transform="translate(-7.84 -13.66)" fill="#cbc9bc"/><path d="M40.11,57.91h-3a.38.38,0,0,1-.38-.38v-3a.38.38,0,0,1,.38-.38h3a.38.38,0,0,1,.38.38v3A.38.38,0,0,1,40.11,57.91Zm-2.61-.75h2.24V54.92H37.5Z" transform="translate(-7.84 -13.66)" fill="#472b29"/><path d="M47.09,59.53h3v3h-3Z" transform="translate(-7.84 -13.66)" fill="#cbc9bc"/><path d="M50.08,62.89h-3a.38.38,0,0,1-.38-.37v-3a.38.38,0,0,1,.38-.38h3a.38.38,0,0,1,.37.38v3A.38.38,0,0,1,50.08,62.89Zm-2.62-.75H49.7V59.9H47.46Z" transform="translate(-7.84 -13.66)" fill="#472b29"/><path d="M54.56,62.52H52.07v-3h3v2" transform="translate(-7.84 -13.66)" fill="#cbc9bc"/><path d="M54.56,62.89H52.07a.38.38,0,0,1-.38-.37v-3a.38.38,0,0,1,.38-.38h3a.38.38,0,0,1,.37.38v2a.38.38,0,1,1-.75,0V59.9H52.44v2.24h2.12a.38.38,0,1,1,0,.75Z" transform="translate(-7.84 -13.66)" fill="#472b29"/><path d="M65.94,54.08a9.46,9.46,0,0,0,0,18.91h0a9.46,9.46,0,1,0,0-18.91Z" transform="translate(-7.84 -13.66)" fill="#fac583"/><path d="M65.94,73.69A10.16,10.16,0,1,1,76.1,63.53,10.17,10.17,0,0,1,65.94,73.69Zm0-18.91a8.76,8.76,0,1,0,8.76,8.75A8.75,8.75,0,0,0,65.94,54.78Z" transform="translate(-7.84 -13.66)" fill="#472b29"/><path d="M70,59.26h0c-.51-.51-1.18-.68-1.48-.38l-5.9,5.9a22.59,22.59,0,0,0-1.2,2.81.12.12,0,0,0,0,.14l.06.06a.17.17,0,0,0,.19,0,23.48,23.48,0,0,0,2.78-1.18l5.9-5.9C70.66,60.45,70.48,59.78,70,59.26Z" transform="translate(-7.84 -13.66)" fill="#fdfcef"/><path d="M61.6,68.22a.55.55,0,0,1-.38-.16.56.56,0,0,1-.17-.63c.06-.14.17-.43.3-.76a8.82,8.82,0,0,1,1-2.16l5.9-5.89a1.05,1.05,0,0,1,1-.22,2.16,2.16,0,0,1,1,.6h0a2,2,0,0,1,.65,1.34.92.92,0,0,1-.26.67l-5.9,5.9a7.68,7.68,0,0,1-2.06.93l-.84.33A.51.51,0,0,1,61.6,68.22Zm-.08-.73Zm7.37-8.38a.2.2,0,0,0-.14,0l-5.9,5.9a14.61,14.61,0,0,0-.8,1.88c0,.15-.1.28-.15.4l.5-.19a14,14,0,0,0,1.79-.76l5.9-5.9a.23.23,0,0,0,0-.14,1.25,1.25,0,0,0-.43-.81h0A1.23,1.23,0,0,0,68.89,59.11Z" transform="translate(-7.84 -13.66)" fill="#472b29"/><path d="M67.27,60.1,69.14,62" transform="translate(-7.84 -13.66)" fill="#fdfcef"/><path d="M69.14,62.21a.24.24,0,0,1-.18-.07L67.1,60.27a.25.25,0,0,1,.35-.35l1.87,1.86a.27.27,0,0,1,0,.36A.26.26,0,0,1,69.14,62.21Z" transform="translate(-7.84 -13.66)" fill="#472b29"/><path d="M62.57,64.94l1.72,1.71" transform="translate(-7.84 -13.66)" fill="#fdfcef"/><path d="M64.29,66.9a.24.24,0,0,1-.18-.07l-1.72-1.72a.26.26,0,0,1,0-.35.25.25,0,0,1,.36,0l1.72,1.72a.26.26,0,0,1,0,.35A.26.26,0,0,1,64.29,66.9Z" transform="translate(-7.84 -13.66)" fill="#472b29"/><path d="M62.06,66.56l.64.64" transform="translate(-7.84 -13.66)" fill="#fdfcef"/><path d="M62.7,67.33a.12.12,0,0,1-.09,0L62,66.64a.12.12,0,0,1,.17-.17l.65.64a.13.13,0,0,1,0,.18A.11.11,0,0,1,62.7,67.33Z" transform="translate(-7.84 -13.66)" fill="#472b29"/><path d="M39.59,70.72h3.54a3.73,3.73,0,0,0,.78-7.4,3.58,3.58,0,0,0,0-.48A3.92,3.92,0,0,0,40,59a4,4,0,0,0-3.15,1.54A4.38,4.38,0,0,0,28.2,60a4.26,4.26,0,0,0,0,1.67,2.74,2.74,0,0,0-2-.86,2.7,2.7,0,0,0-2.72,2.49,3.72,3.72,0,0,0-2.12.15,3.72,3.72,0,0,0,1.29,7.24h8.81m1.64,0h.36" transform="translate(-7.84 -13.66)" fill="#fdfcef"/><path d="M43.13,71.22H39.59a.5.5,0,0,1-.5-.5.5.5,0,0,1,.5-.5h3.54a3.23,3.23,0,0,0,.68-6.41.49.49,0,0,1-.39-.55c0-.13,0-.27,0-.42A3.41,3.41,0,0,0,40,59.47a3.45,3.45,0,0,0-2.76,1.35.51.51,0,0,1-.9-.27A3.68,3.68,0,0,0,35,58a3.92,3.92,0,0,0-3-.85,3.76,3.76,0,0,0-3.3,4.5.5.5,0,0,1-.25.54.52.52,0,0,1-.6-.1A2.24,2.24,0,0,0,24,63.37a.5.5,0,0,1-.19.36.51.51,0,0,1-.41.09,3.2,3.2,0,0,0-1.84.13,3.3,3.3,0,0,0-2.2,2.9,3.18,3.18,0,0,0,.9,2.35,3.31,3.31,0,0,0,2.42,1h8.81a.51.51,0,0,1,.5.5.5.5,0,0,1-.5.5H22.66a4.36,4.36,0,0,1-3.14-1.33,4.16,4.16,0,0,1-1.18-3.08A4.32,4.32,0,0,1,21.19,63a4.17,4.17,0,0,1,1.88-.25,3.23,3.23,0,0,1,3.14-2.42,3.27,3.27,0,0,1,1.41.32,5.87,5.87,0,0,1,.08-.72,4.89,4.89,0,0,1,7.9-2.76,4.73,4.73,0,0,1,1.55,2.3,4.47,4.47,0,0,1,7.3,3.36V63a4.23,4.23,0,0,1-1.32,8.27Zm-9.66,0h-.36a.5.5,0,0,1-.5-.5.5.5,0,0,1,.5-.5h.36a.5.5,0,0,1,.5.5A.5.5,0,0,1,33.47,71.22Z" transform="translate(-7.84 -13.66)" fill="#472b29"/><path d="M41.42,65.42h-.06a.24.24,0,0,1-.18-.3,2,2,0,0,1,.16-.47,2.8,2.8,0,0,1,3.73-1,.25.25,0,0,1,.12.33.24.24,0,0,1-.33.12,2.3,2.3,0,0,0-3.07.78,2.2,2.2,0,0,0-.13.36A.25.25,0,0,1,41.42,65.42Z" transform="translate(-7.84 -13.66)" fill="#472b29"/><path d="M36.26,71.22H35.15a.5.5,0,0,1-.5-.5.51.51,0,0,1,.5-.5h1.11a.5.5,0,0,1,.5.5A.5.5,0,0,1,36.26,71.22Z" transform="translate(-7.84 -13.66)" fill="#472b29"/></svg>